umbra-6.ufo
<glyph name="dollar" format="1">
  <advance width="449"/>
  <unicode hex="0024"/>
  <outline>
    <contour>
      <point x="279" y="-24" type="curve" smooth="yes"/>
      <point x="279" y="36"/>
      <point x="46" y="39"/>
      <point x="46" y="189" type="curve" smooth="yes"/>
      <point x="46" y="268"/>
      <point x="102" y="319"/>
      <point x="180" y="335" type="curve"/>
      <point x="165" y="396" type="line"/>
      <point x="305" y="396" type="line"/>
      <point x="290" y="335" type="line"/>
      <point x="336" y="323"/>
      <point x="378" y="296"/>
      <point x="415" y="254" type="curve"/>
      <point x="375" y="144" type="line"/>
      <point x="335" y="182"/>
      <point x="287" y="221"/>
      <point x="239" y="221" type="curve" smooth="yes"/>
      <point x="211" y="221"/>
      <point x="201" y="207"/>
      <point x="201" y="189" type="curve" smooth="yes"/>
      <point x="201" y="129"/>
      <point x="424" y="122"/>
      <point x="424" y="-22" type="curve" smooth="yes"/>
      <point x="424" y="-127"/>
      <point x="359" y="-172"/>
      <point x="276" y="-185" type="curve"/>
      <point x="292" y="-249" type="line"/>
      <point x="152" y="-249" type="line"/>
      <point x="168" y="-185" type="line"/>
      <point x="99" y="-175"/>
      <point x="47" y="-145"/>
      <point x="15" y="-107" type="curve"/>
      <point x="55" y="8" type="line"/>
      <point x="95" y="-30"/>
      <point x="164" y="-64"/>
      <point x="212" y="-64" type="curve" smooth="yes"/>
      <point x="250" y="-64"/>
      <point x="279" y="-55"/>
    </contour>
  </outline>
</glyph>
<glyph name="percent" format="1">
  <advance width="641"/>
  <unicode hex="0025"/>
  <outline>
    <contour>
      <point x="100" y="-174" type="line"/>
      <point x="410" y="326" type="line"/>
      <point x="540" y="326" type="line"/>
      <point x="230" y="-174" type="line"/>
    </contour>
    <contour>
      <point x="150" y="134" type="line"/>
      <point x="45" y="239" type="line"/>
      <point x="150" y="345" type="line"/>
      <point x="256" y="239" type="line"/>
    </contour>
    <contour>
      <point x="490" y="-202" type="line"/>
      <point x="385" y="-97" type="line"/>
      <point x="490" y="9" type="line"/>
      <point x="596" y="-97" type="line"/>
    </contour>
  </outline>
</glyph>
<glyph name="ampersand" format="1">
  <advance width="487"/>
  <unicode hex="0026"/>
  <outline>
    <contour>
      <point x="290" y="35" type="line"/>
      <point x="257" y="35" type="line" smooth="yes"/>
      <point x="209" y="35"/>
      <point x="175" y="24"/>
      <point x="175" y="-14" type="curve" smooth="yes"/>
      <point x="175" y="-45"/>
      <point x="202" y="-64"/>
      <point x="235" y="-64" type="curve" smooth="yes"/>
      <point x="258" y="-64"/>
      <point x="290" y="-51"/>
      <point x="290" y="-20" type="curve" smooth="yes"/>
    </contour>
    <contour>
      <point x="200" y="183" type="curve" smooth="yes"/>
      <point x="200" y="155"/>
      <point x="209" y="130"/>
      <point x="257" y="130" type="curve" smooth="yes"/>
      <point x="457" y="130" type="line"/>
      <point x="457" y="35" type="line"/>
      <point x="405" y="35" type="line"/>
      <point x="409" y="19"/>
      <point x="410" y="-3"/>
      <point x="410" y="-47" type="curve" smooth="yes"/>
      <point x="410" y="-142"/>
      <point x="316" y="-189"/>
      <point x="227" y="-189" type="curve" smooth="yes"/>
      <point x="140" y="-189"/>
      <point x="35" y="-139"/>
      <point x="35" y="-22" type="curve" smooth="yes"/>
      <point x="35" y="34"/>
      <point x="66" y="73"/>
      <point x="120" y="93" type="curve"/>
      <point x="75" y="111"/>
      <point x="49" y="144"/>
      <point x="49" y="199" type="curve" smooth="yes"/>
      <point x="49" y="296"/>
      <point x="134" y="341"/>
      <point x="221" y="341" type="curve" smooth="yes"/>
      <point x="308" y="341"/>
      <point x="368" y="291"/>
      <point x="388" y="264" type="curve"/>
      <point x="348" y="174" type="line"/>
      <point x="308" y="212"/>
      <point x="270" y="221"/>
      <point x="242" y="221" type="curve" smooth="yes"/>
      <point x="214" y="221"/>
      <point x="200" y="206"/>
    </contour>
  </outline>
</glyph>
<glyph name="parenright" format="1">
  <advance width="232"/>
  <unicode hex="0029"/>
  <outline>
    <contour>
      <point x="90" y="377" type="line"/>
      <point x="165" y="292"/>
      <point x="202" y="187"/>
      <point x="202" y="82" type="curve" smooth="yes"/>
      <point x="202" y="-23"/>
      <point x="165" y="-128"/>
      <point x="90" y="-213" type="curve"/>
      <point x="0" y="-213" type="line"/>
      <point x="50" y="-138"/>
      <point x="74" y="-28"/>
      <point x="74" y="82" type="curve" smooth="yes"/>
      <point x="74" y="192"/>
      <point x="50" y="302"/>
      <point x="0" y="377" type="curve"/>
    </contour>
  </outline>
</glyph>
<glyph name="asterisk" format="1">
  <advance width="459"/>
  <unicode hex="002A"/>
  <outline>
    <contour>
      <point x="192" y="143" type="line"/>
      <point x="165" y="286" type="line"/>
      <point x="295" y="286" type="line"/>
      <point x="267" y="143" type="line"/>
      <point x="379" y="237" type="line"/>
      <point x="444" y="125" type="line"/>
      <point x="305" y="76" type="line"/>
      <point x="444" y="27" type="line"/>
      <point x="379" y="-85" type="line"/>
      <point x="267" y="9" type="line"/>
      <point x="295" y="-134" type="line"/>
      <point x="165" y="-134" type="line"/>
      <point x="192" y="9" type="line"/>
      <point x="80" y="-85" type="line"/>
      <point x="15" y="27" type="line"/>
      <point x="154" y="76" type="line"/>
      <point x="15" y="125" type="line"/>
      <point x="80" y="237" type="line"/>
    </contour>
  </outline>
</glyph>
<glyph name="comma" format="1">
  <advance width="220"/>
  <unicode hex="002C"/>
  <outline>
    <contour>
      <point x="45" y="-294" type="line"/>
      <point x="45" y="-34" type="line"/>
      <point x="175" y="-34" type="line"/>
      <point x="175" y="-174" type="line"/>
    </contour>
  </outline>
</glyph>
<glyph name="eight" format="1">
  <advance width="464"/>
  <unicode hex="0038"/>
  <outline>
    <contour>
      <point x="160" y="-22" type="curve" smooth="yes"/>
      <point x="160" y="-50"/>
      <point x="184" y="-69"/>
      <point x="232" y="-69" type="curve" smooth="yes"/>
      <point x="280" y="-69"/>
      <point x="304" y="-50"/>
      <point x="304" y="-22" type="curve" smooth="yes"/>
      <point x="304" y="6"/>
      <point x="280" y="26"/>
      <point x="232" y="26" type="curve" smooth="yes"/>
      <point x="184" y="26"/>
      <point x="160" y="6"/>
    </contour>
    <contour>
      <point x="180" y="180" type="curve" smooth="yes"/>
      <point x="180" y="152"/>
      <point x="204" y="141"/>
      <point x="232" y="141" type="curve" smooth="yes"/>
      <point x="260" y="141"/>
      <point x="284" y="152"/>
      <point x="284" y="180" type="curve" smooth="yes"/>
      <point x="284" y="208"/>
      <point x="260" y="221"/>
      <point x="232" y="221" type="curve" smooth="yes"/>
      <point x="204" y="221"/>
      <point x="180" y="208"/>
    </contour>
    <contour>
      <point x="50" y="190" type="curve" smooth="yes"/>
      <point x="50" y="267"/>
      <point x="115" y="336"/>
      <point x="232" y="336" type="curve" smooth="yes"/>
      <point x="349" y="336"/>
      <point x="414" y="267"/>
      <point x="414" y="190" type="curve" smooth="yes"/>
      <point x="414" y="143"/>
      <point x="389" y="107"/>
      <point x="343" y="86" type="curve"/>
      <point x="399" y="67"/>
      <point x="434" y="30"/>
      <point x="434" y="-32" type="curve" smooth="yes"/>
      <point x="434" y="-139"/>
      <point x="349" y="-184"/>
      <point x="232" y="-184" type="curve" smooth="yes"/>
      <point x="115" y="-184"/>
      <point x="30" y="-129"/>
      <point x="30" y="-32" type="curve" smooth="yes"/>
      <point x="30" y="31"/>
      <point x="66" y="69"/>
      <point x="124" y="87" type="curve"/>
      <point x="76" y="110"/>
      <point x="50" y="148"/>
    </contour>
  </outline>
</glyph>
<glyph name="colon" format="1">
  <advance width="291"/>
  <unicode hex="003A"/>
  <outline>
    <contour>
      <point x="145" y="83" type="line"/>
      <point x="40" y="188" type="line"/>
      <point x="145" y="294" type="line"/>
      <point x="251" y="188" type="line"/>
    </contour>
    <contour>
      <point x="145" y="-202" type="line"/>
      <point x="40" y="-97" type="line"/>
      <point x="145" y="9" type="line"/>
      <point x="251" y="-97" type="line"/>
    </contour>
  </outline>
</glyph>
<glyph name="at" format="1">
  <advance width="700"/>
  <unicode hex="0040"/>
  <outline>
    <contour>
      <point x="680" y="46" type="curve" smooth="yes"/>
      <point x="680" y="-84"/>
      <point x="633" y="-186"/>
      <point x="506" y="-186" type="curve" smooth="yes"/>
      <point x="459" y="-186"/>
      <point x="414" y="-175"/>
      <point x="399" y="-129" type="curve"/>
      <point x="375" y="-156"/>
      <point x="343" y="-174"/>
      <point x="307" y="-174" type="curve" smooth="yes"/>
      <point x="200" y="-174"/>
      <point x="155" y="-79"/>
      <point x="155" y="8" type="curve" smooth="yes"/>
      <point x="155" y="95"/>
      <point x="210" y="191"/>
      <point x="297" y="191" type="curve" smooth="yes"/>
      <point x="334" y="191"/>
      <point x="367" y="174"/>
      <point x="394" y="148" type="curve"/>
      <point x="394" y="181" type="line"/>
      <point x="529" y="181" type="line"/>
      <point x="529" y="-64" type="line" smooth="yes"/>
      <point x="529" y="-92"/>
      <point x="531" y="-101"/>
      <point x="546" y="-101" type="curve" smooth="yes"/>
      <point x="574" y="-101"/>
      <point x="595" y="-34"/>
      <point x="595" y="46" type="curve" smooth="yes"/>
      <point x="595" y="219"/>
      <point x="477" y="276"/>
      <point x="355" y="276" type="curve" smooth="yes"/>
      <point x="243" y="276"/>
      <point x="105" y="189"/>
      <point x="105" y="16" type="curve" smooth="yes"/>
      <point x="105" y="-187"/>
      <point x="233" y="-239"/>
      <point x="385" y="-239" type="curve"/>
      <point x="385" y="-304" type="line"/>
      <point x="160" y="-304"/>
      <point x="20" y="-203"/>
      <point x="20" y="16" type="curve" smooth="yes"/>
      <point x="20" y="205"/>
      <point x="170" y="346"/>
      <point x="355" y="346" type="curve" smooth="yes"/>
      <point x="550" y="346"/>
      <point x="680" y="215"/>
    </contour>
    <contour>
      <point x="394" y="-45" type="curve"/>
      <point x="394" y="62" type="line"/>
      <point x="377" y="80"/>
      <point x="353" y="86"/>
      <point x="337" y="86" type="curve" smooth="yes"/>
      <point x="309" y="86"/>
      <point x="290" y="56"/>
      <point x="290" y="8" type="curve" smooth="yes"/>
      <point x="290" y="-40"/>
      <point x="309" y="-69"/>
      <point x="337" y="-69" type="curve" smooth="yes"/>
      <point x="353" y="-69"/>
      <point x="377" y="-62"/>
    </contour>
  </outline>
</glyph>
<glyph name="A" format="1">
  <advance width="580"/>
  <unicode hex="0041"/>
  <outline>
    <contour>
      <point x="10" y="-174" type="line"/>
      <point x="210" y="326" type="line"/>
      <point x="370" y="326" type="line"/>
      <point x="570" y="-174" type="line"/>
      <point x="420" y="-174" type="line"/>
      <point x="389" y="-89" type="line"/>
      <point x="191" y="-89" type="line"/>
      <point x="160" y="-174" type="line"/>
    </contour>
    <contour>
      <point x="290" y="187" type="line"/>
      <point x="232" y="26" type="line"/>
      <point x="348" y="26" type="line"/>
    </contour>
  </outline>
</glyph>
<glyph name="C" format="1">
  <advance width="515"/>
  <unicode hex="0043"/>
  <outline>
    <contour>
      <point x="175" y="76" type="curve" smooth="yes"/>
      <point x="175" y="-17"/>
      <point x="248" y="-69"/>
      <point x="305" y="-69" type="curve" smooth="yes"/>
      <point x="366" y="-69"/>
      <point x="410" y="-46"/>
      <point x="435" y="-13" type="curve"/>
      <point x="475" y="-140" type="line"/>
      <point x="443" y="-172"/>
      <point x="396" y="-194"/>
      <point x="315" y="-194" type="curve" smooth="yes"/>
      <point x="140" y="-194"/>
      <point x="30" y="-73"/>
      <point x="30" y="76" type="curve" smooth="yes"/>
      <point x="30" y="225"/>
      <point x="140" y="346"/>
      <point x="315" y="346" type="curve" smooth="yes"/>
      <point x="396" y="346"/>
      <point x="443" y="324"/>
      <point x="475" y="292" type="curve"/>
      <point x="435" y="165" type="line"/>
      <point x="410" y="198"/>
      <point x="366" y="221"/>
      <point x="305" y="221" type="curve" smooth="yes"/>
      <point x="248" y="221"/>
      <point x="175" y="169"/>
    </contour>
  </outline>
</glyph>
<glyph name="K" format="1">
  <advance width="525"/>
  <unicode hex="004B"/>
  <outline>
    <contour>
      <point x="45" y="-174" type="line"/>
      <point x="45" y="326" type="line"/>
      <point x="185" y="326" type="line"/>
      <point x="185" y="119" type="line"/>
      <point x="345" y="326" type="line"/>
      <point x="515" y="326" type="line"/>
      <point x="335" y="106" type="line"/>
      <point x="525" y="-174" type="line"/>
      <point x="345" y="-174" type="line"/>
      <point x="185" y="62" type="line"/>
      <point x="185" y="-174" type="line"/>
    </contour>
  </outline>
</glyph>
<glyph name="N" format="1">
  <advance width="590"/>
  <unicode hex="004E"/>
  <outline>
    <contour>
      <point x="45" y="-174" type="line"/>
      <point x="45" y="326" type="line"/>
      <point x="215" y="326" type="line"/>
      <point x="405" y="9" type="line"/>
      <point x="405" y="326" type="line"/>
      <point x="545" y="326" type="line"/>
      <point x="545" y="-174" type="line"/>
      <point x="375" y="-174" type="line"/>
      <point x="185" y="143" type="line"/>
      <point x="185" y="-174" type="line"/>
    </contour>
  </outline>
</glyph>
<glyph name="O" format="1">
  <advance width="610"/>
  <unicode hex="004F"/>
  <outline>
    <contour>
      <point x="30" y="76" type="curve" smooth="yes"/>
      <point x="30" y="225"/>
      <point x="130" y="346"/>
      <point x="305" y="346" type="curve" smooth="yes"/>
      <point x="480" y="346"/>
      <point x="580" y="225"/>
      <point x="580" y="76" type="curve" smooth="yes"/>
      <point x="580" y="-73"/>
      <point x="480" y="-194"/>
      <point x="305" y="-194" type="curve" smooth="yes"/>
      <point x="130" y="-194"/>
      <point x="30" y="-73"/>
    </contour>
    <contour>
      <point x="175" y="76" type="curve" smooth="yes"/>
      <point x="175" y="-17"/>
      <point x="243" y="-69"/>
      <point x="305" y="-69" type="curve" smooth="yes"/>
      <point x="367" y="-69"/>
      <point x="435" y="-17"/>
      <point x="435" y="76" type="curve" smooth="yes"/>
      <point x="435" y="169"/>
      <point x="367" y="221"/>
      <point x="305" y="221" type="curve" smooth="yes"/>
      <point x="243" y="221"/>
      <point x="175" y="169"/>
    </contour>
  </outline>
</glyph>
<glyph name="S" format="1">
  <advance width="449"/>
  <unicode hex="0053"/>
  <outline>
    <contour>
      <point x="279" y="-24" type="curve" smooth="yes"/>
      <point x="279" y="36"/>
      <point x="46" y="39"/>
      <point x="46" y="189" type="curve" smooth="yes"/>
      <point x="46" y="286"/>
      <point x="131" y="341"/>
      <point x="238" y="341" type="curve" smooth="yes"/>
      <point x="305" y="341"/>
      <point x="365" y="311"/>
      <point x="415" y="254" type="curve"/>
      <point x="375" y="144" type="line"/>
      <point x="335" y="182"/>
      <point x="287" y="221"/>
      <point x="239" y="221" type="curve" smooth="yes"/>
      <point x="211" y="221"/>
      <point x="201" y="207"/>
      <point x="201" y="189" type="curve" smooth="yes"/>
      <point x="201" y="129"/>
      <point x="424" y="122"/>
      <point x="424" y="-22" type="curve" smooth="yes"/>
      <point x="424" y="-149"/>
      <point x="329" y="-189"/>
      <point x="222" y="-189" type="curve" smooth="yes"/>
      <point x="125" y="-189"/>
      <point x="55" y="-154"/>
      <point x="15" y="-107" type="curve"/>
      <point x="55" y="8" type="line"/>
      <point x="95" y="-30"/>
      <point x="164" y="-64"/>
      <point x="212" y="-64" type="curve" smooth="yes"/>
      <point x="250" y="-64"/>
      <point x="279" y="-55"/>
    </contour>
  </outline>
</glyph>
<glyph name="U" format="1">
  <advance width="554"/>
  <unicode hex="0055"/>
  <outline>
    <contour>
      <point x="185" y="48" type="line" smooth="yes"/>
      <point x="185" y="-20"/>
      <point x="219" y="-59"/>
      <point x="277" y="-59" type="curve" smooth="yes"/>
      <point x="335" y="-59"/>
      <point x="369" y="-20"/>
      <point x="369" y="48" type="curve" smooth="yes"/>
      <point x="369" y="326" type="line"/>
      <point x="509" y="326" type="line"/>
      <point x="509" y="48" type="line" smooth="yes"/>
      <point x="509" y="-99"/>
      <point x="434" y="-184"/>
      <point x="277" y="-184" type="curve" smooth="yes"/>
      <point x="120" y="-184"/>
      <point x="45" y="-89"/>
      <point x="45" y="48" type="curve" smooth="yes"/>
      <point x="45" y="326" type="line"/>
      <point x="185" y="326" type="line"/>
    </contour>
  </outline>
</glyph>
<glyph name="backslash" format="1">
  <advance width="460"/>
  <unicode hex="005C"/>
  <outline>
    <contour>
      <point x="450" y="-174" type="line"/>
      <point x="320" y="-174" type="line"/>
      <point x="10" y="326" type="line"/>
      <point x="140" y="326" type="line"/>
    </contour>
  </outline>
</glyph>
<glyph name="b" format="1">
  <advance width="499"/>
  <unicode hex="0062"/>
  <outline>
    <contour>
      <point x="40" y="-174" type="line"/>
      <point x="40" y="356" type="line"/>
      <point x="175" y="356" type="line"/>
      <point x="175" y="172" type="line"/>
      <point x="206" y="203"/>
      <point x="247" y="221"/>
      <point x="292" y="221" type="curve" smooth="yes"/>
      <point x="399" y="221"/>
      <point x="464" y="135"/>
      <point x="464" y="18" type="curve" smooth="yes"/>
      <point x="464" y="-99"/>
      <point x="399" y="-184"/>
      <point x="292" y="-184" type="curve" smooth="yes"/>
      <point x="247" y="-184"/>
      <point x="206" y="-164"/>
      <point x="175" y="-132" type="curve"/>
      <point x="175" y="-174" type="line"/>
    </contour>
    <contour>
      <point x="175" y="-41" type="line"/>
      <point x="194" y="-65"/>
      <point x="223" y="-79"/>
      <point x="252" y="-79" type="curve" smooth="yes"/>
      <point x="300" y="-79"/>
      <point x="329" y="-40"/>
      <point x="329" y="18" type="curve" smooth="yes"/>
      <point x="329" y="76"/>
      <point x="300" y="116"/>
      <point x="252" y="116" type="curve" smooth="yes"/>
      <point x="223" y="116"/>
      <point x="194" y="101"/>
      <point x="175" y="77" type="curve"/>
    </contour>
  </outline>
</glyph>
<glyph name="d" format="1">
  <advance width="499"/>
  <unicode hex="0064"/>
  <outline>
    <contour>
      <point x="459" y="-174" type="line"/>
      <point x="324" y="-174" type="line"/>
      <point x="324" y="-132" type="line"/>
      <point x="293" y="-164"/>
      <point x="252" y="-184"/>
      <point x="207" y="-184" type="curve" smooth="yes"/>
      <point x="100" y="-184"/>
      <point x="35" y="-99"/>
      <point x="35" y="18" type="curve" smooth="yes"/>
      <point x="35" y="135"/>
      <point x="100" y="221"/>
      <point x="207" y="221" type="curve" smooth="yes"/>
      <point x="252" y="221"/>
      <point x="293" y="203"/>
      <point x="324" y="172" type="curve"/>
      <point x="324" y="356" type="line"/>
      <point x="459" y="356" type="line"/>
    </contour>
    <contour>
      <point x="324" y="77" type="line"/>
      <point x="305" y="101"/>
      <point x="276" y="116"/>
      <point x="247" y="116" type="curve" smooth="yes"/>
      <point x="199" y="116"/>
      <point x="170" y="76"/>
      <point x="170" y="18" type="curve" smooth="yes"/>
      <point x="170" y="-40"/>
      <point x="199" y="-79"/>
      <point x="247" y="-79" type="curve" smooth="yes"/>
      <point x="276" y="-79"/>
      <point x="305" y="-65"/>
      <point x="324" y="-41" type="curve"/>
    </contour>
  </outline>
</glyph>
<glyph name="f" format="1">
  <advance width="333"/>
  <unicode hex="0066"/>
  <outline>
    <contour>
      <point x="199" y="-174" type="line"/>
      <point x="64" y="-174" type="line"/>
      <point x="64" y="111" type="line"/>
      <point x="20" y="111" type="line"/>
      <point x="20" y="211" type="line"/>
      <point x="64" y="211" type="line"/>
      <point x="64" y="214" type="line" smooth="yes"/>
      <point x="64" y="311"/>
      <point x="149" y="366"/>
      <point x="226" y="366" type="curve" smooth="yes"/>
      <point x="293" y="366"/>
      <point x="323" y="351"/>
      <point x="373" y="304" type="curve"/>
      <point x="333" y="204" type="line"/>
      <point x="293" y="242"/>
      <point x="264" y="256"/>
      <point x="246" y="256" type="curve" smooth="yes"/>
      <point x="223" y="256"/>
      <point x="206" y="247"/>
      <point x="201" y="211" type="curve"/>
      <point x="285" y="211" type="line"/>
      <point x="285" y="111" type="line"/>
      <point x="199" y="111" type="line"/>
    </contour>
  </outline>
</glyph>
<glyph name="h" format="1">
  <advance width="474"/>
  <unicode hex="0068"/>
  <outline>
    <contour>
      <point x="40" y="-174" type="line"/>
      <point x="40" y="356" type="line"/>
      <point x="175" y="356" type="line"/>
      <point x="175" y="139" type="line"/>
      <point x="208" y="189"/>
      <point x="257" y="221"/>
      <point x="302" y="221" type="curve" smooth="yes"/>
      <point x="389" y="221"/>
      <point x="434" y="165"/>
      <point x="434" y="68" type="curve" smooth="yes"/>
      <point x="434" y="-174" type="line"/>
      <point x="299" y="-174" type="line"/>
      <point x="299" y="38" type="line" smooth="yes"/>
      <point x="299" y="96"/>
      <point x="280" y="116"/>
      <point x="252" y="116" type="curve" smooth="yes"/>
      <point x="223" y="116"/>
      <point x="194" y="94"/>
      <point x="175" y="66" type="curve"/>
      <point x="175" y="-174" type="line"/>
    </contour>
  </outline>
</glyph>
<glyph name="i" format="1">
  <advance width="271"/>
  <unicode hex="0069"/>
  <outline>
    <contour>
      <point x="68" y="-174" type="line"/>
      <point x="68" y="211" type="line"/>
      <point x="203" y="211" type="line"/>
      <point x="203" y="-174" type="line"/>
    </contour>
    <contour>
      <point x="135" y="268" type="line"/>
      <point x="40" y="363" type="line"/>
      <point x="135" y="459" type="line"/>
      <point x="231" y="363" type="line"/>
    </contour>
  </outline>
</glyph>
<glyph name="o" format="1">
  <advance width="474"/>
  <unicode hex="006F"/>
  <outline>
    <contour>
      <point x="165" y="18" type="curve" smooth="yes"/>
      <point x="165" y="-30"/>
      <point x="189" y="-69"/>
      <point x="237" y="-69" type="curve" smooth="yes"/>
      <point x="285" y="-69"/>
      <point x="309" y="-30"/>
      <point x="309" y="18" type="curve" smooth="yes"/>
      <point x="309" y="66"/>
      <point x="285" y="106"/>
      <point x="237" y="106" type="curve" smooth="yes"/>
      <point x="189" y="106"/>
      <point x="165" y="66"/>
    </contour>
    <contour>
      <point x="35" y="18" type="curve" smooth="yes"/>
      <point x="35" y="145"/>
      <point x="120" y="221"/>
      <point x="237" y="221" type="curve" smooth="yes"/>
      <point x="354" y="221"/>
      <point x="439" y="145"/>
      <point x="439" y="18" type="curve" smooth="yes"/>
      <point x="439" y="-109"/>
      <point x="354" y="-184"/>
      <point x="237" y="-184" type="curve" smooth="yes"/>
      <point x="120" y="-184"/>
      <point x="35" y="-99"/>
    </contour>
  </outline>
</glyph>
<glyph name="q" format="1">
  <advance width="499"/>
  <unicode hex="0071"/>
  <outline>
    <contour>
      <point x="464" y="211" type="line"/>
      <point x="464" y="-319" type="line"/>
      <point x="329" y="-319" type="line"/>
      <point x="329" y="-135" type="line"/>
      <point x="298" y="-166"/>
      <point x="257" y="-184"/>
      <point x="212" y="-184" type="curve" smooth="yes"/>
      <point x="105" y="-184"/>
      <point x="40" y="-98"/>
      <point x="40" y="19" type="curve" smooth="yes"/>
      <point x="40" y="136"/>
      <point x="105" y="221"/>
      <point x="212" y="221" type="curve" smooth="yes"/>
      <point x="257" y="221"/>
      <point x="298" y="201"/>
      <point x="329" y="169" type="curve"/>
      <point x="329" y="211" type="line"/>
    </contour>
    <contour>
      <point x="329" y="78" type="line"/>
      <point x="310" y="102"/>
      <point x="281" y="116"/>
      <point x="252" y="116" type="curve" smooth="yes"/>
      <point x="204" y="116"/>
      <point x="175" y="77"/>
      <point x="175" y="19" type="curve" smooth="yes"/>
      <point x="175" y="-39"/>
      <point x="204" y="-79"/>
      <point x="252" y="-79" type="curve" smooth="yes"/>
      <point x="281" y="-79"/>
      <point x="310" y="-64"/>
      <point x="329" y="-40" type="curve"/>
    </contour>
  </outline>
</glyph>
<glyph name="t" format="1">
  <advance width="325"/>
  <unicode hex="0074"/>
  <outline>
    <contour>
      <point x="20" y="111" type="line"/>
      <point x="20" y="211" type="line"/>
      <point x="90" y="211" type="line"/>
      <point x="90" y="276" type="line"/>
      <point x="225" y="336" type="line"/>
      <point x="225" y="211" type="line"/>
      <point x="305" y="211" type="line"/>
      <point x="305" y="111" type="line"/>
      <point x="225" y="111" type="line"/>
      <point x="225" y="-174" type="line"/>
      <point x="90" y="-174" type="line"/>
      <point x="90" y="111" type="line"/>
    </contour>
  </outline>
</glyph>
<glyph name="u" format="1">
  <advance width="474"/>
  <unicode hex="0075"/>
  <outline>
    <contour>
      <point x="434" y="211" type="line"/>
      <point x="434" y="-174" type="line"/>
      <point x="299" y="-174" type="line"/>
      <point x="299" y="-102" type="line"/>
      <point x="266" y="-152"/>
      <point x="217" y="-184"/>
      <point x="172" y="-184" type="curve" smooth="yes"/>
      <point x="85" y="-184"/>
      <point x="40" y="-128"/>
      <point x="40" y="-31" type="curve" smooth="yes"/>
      <point x="40" y="211" type="line"/>
      <point x="175" y="211" type="line"/>
      <point x="175" y="-1" type="line" smooth="yes"/>
      <point x="175" y="-59"/>
      <point x="194" y="-79"/>
      <point x="222" y="-79" type="curve" smooth="yes"/>
      <point x="251" y="-79"/>
      <point x="280" y="-57"/>
      <point x="299" y="-29" type="curve"/>
      <point x="299" y="211" type="line"/>
    </contour>
  </outline>
</glyph>
<glyph name="v" format="1">
  <advance width="465"/>
  <unicode hex="0076"/>
  <outline>
    <contour>
      <point x="160" y="-174" type="line"/>
      <point x="10" y="211" type="line"/>
      <point x="155" y="211" type="line"/>
      <point x="236" y="-73" type="line"/>
      <point x="310" y="211" type="line"/>
      <point x="455" y="211" type="line"/>
      <point x="315" y="-174" type="line"/>
    </contour>
  </outline>
</glyph>
<glyph name="quoteright" format="1">
  <advance width="220"/>
  <unicode hex="2019"/>
  <outline>
    <contour>
      <point x="45" y="66" type="line"/>
      <point x="45" y="326" type="line"/>
      <point x="175" y="326" type="line"/>
      <point x="175" y="186" type="line"/>
    </contour>
  </outline>
</glyph>
<glyph name="quotedblright" format="1">
  <advance width="430"/>
  <unicode hex="201D"/>
  <outline>
    <contour>
      <point x="255" y="66" type="line"/>
      <point x="255" y="326" type="line"/>
      <point x="385" y="326" type="line"/>
      <point x="385" y="186" type="line"/>
    </contour>
    <contour>
      <point x="45" y="66" type="line"/>
      <point x="45" y="326" type="line"/>
      <point x="175" y="326" type="line"/>
      <point x="175" y="186" type="line"/>
    </contour>
  </outline>
</glyph>
